<?xml version="1.0" encoding="utf-8"?>
<!-- Generator: Adobe Illustrator 16.0.4, SVG Export Plug-In . SVG Version: 6.00 Build 0)  -->
<!DOCTYPE svg PUBLIC "-//W3C//DTD SVG 1.1//EN" "http://www.w3.org/Graphics/SVG/1.1/DTD/svg11.dtd">
<svg version="1.1" id="Layer_1" xmlns="http://www.w3.org/2000/svg" xmlns:xlink="http://www.w3.org/1999/xlink" x="0px" y="0px"
	 width="112px" height="112px" viewBox="0 0 112 112" enable-background="new 0 0 112 112" xml:space="preserve">
<path d="M102.666,9.333h-98V0h98V9.333z M105,56.238c0.799,0,1.572-0.103,2.334-0.233V112h-14V65.334h-28V112H4.667V56
	C5.428,56.131,6.204,56.238,7,56.238c5.264,0,9.861-2.921,12.25-7.229c2.389,4.307,6.986,7.229,12.25,7.229s9.861-2.921,12.25-7.229
	c2.389,4.307,6.986,7.229,12.25,7.229c5.263,0,9.861-2.921,12.25-7.229c2.389,4.307,6.986,7.229,12.25,7.229
	s9.861-2.921,12.25-7.224C95.145,53.316,99.736,56.238,105,56.238z M51.333,65.334H18.667v28h32.667V65.334L51.333,65.334z
	 M102.666,14h-98C4.667,14,0,43.521,0,44.333c0,3.864,3.136,7,7,7s7-3.136,7-7v-21h10.5v21c0,3.864,3.136,7,7,7s7-3.136,7-7v-21H49
	v21c0,3.864,3.137,7,7,7c3.863,0,7-3.136,7-7v-21h10.5v21c0,3.864,3.137,7,7,7s7-3.136,7-7l0.047-21H98v21c0,3.864,3.137,7,7,7
	s7-3.136,7-7C112,43.521,102.666,14,102.666,14z"/>
</svg>
